<svg id="Layer_1" data-name="Layer 1" xmlns="http://www.w3.org/2000/svg" viewBox="0 0 590.96 358.34"><defs xmlns="http://www.w3.org/2000/svg"><style>.cls-1{opacity:0.55;}.cls-2{fill:#2a94f4;}.cls-3{fill:#d3d3d3;}.cls-4{fill:#f2f2f2;}.cls-5{fill:#5b275a;}.cls-6{fill:#fff;}.cls-7{font-size:13.63px;fill:#919191;font-family:MyriadPro-Regular, Myriad Pro;}.cls-8{fill:#431540;}.cls-9{fill:#d51b52;}.cls-10{fill:#2da974;}.cls-11{fill:#e5a42c;}.cls-12{fill:#c084fc;}.cls-13{fill:#e4eef3;}.cls-14{fill:#fcd0b1;}.cls-15{fill:#0b4870;}.cls-16{fill:#cce9ff;}</style></defs><title xmlns="http://www.w3.org/2000/svg">Slack</title><g xmlns="http://www.w3.org/2000/svg" class="cls-1"><path class="cls-2" d="M748.94,609.13l15.51-10A153.75,153.75,0,0,0,779,573c-6.75-1.73-20.72,5.4-20.72,5.4,13.83-8.44,18.8-9.45,23.34-12.2,4-11.58,2.47-24.33,2.58-35.25C769.87,544.61,765.67,547,765.67,547c9.08-7.35,13.78-15.26,18.52-20.79-.73-27.17-9.39-35.83-9.39-35.83-6.72,4.64-20.45,17-25.86,21.55a234.51,234.51,0,0,0-1.46,28.8c-1.69-7.28-2-18.08-1.88-25.92-7.71,6.8-6.39,5.78-11.71,12.56-2.16,13-.4,35.5-.4,35.5-2.59-8.56-3.43-22.32-3.7-29.95a119.46,119.46,0,0,0-17.54,38.14c1.47,11.13,4.15,22.26,4.15,22.26a91.74,91.74,0,0,1-5.59-16.5c-3.53,15.21-5.13,31.45-7,49.5l2.47,15.39L725,634.82c14.24-6.81,26-18,35.16-29.93Z" transform="translate(-220.18 -356.96)"/></g><g xmlns="http://www.w3.org/2000/svg" class="cls-1"><path class="cls-2" d="M734.54,661.21l18.37-2.1a154,154,0,0,0,24.69-16.93c-5.28-4.54-21-4.38-21-4.38,16.13-1.4,21-.1,26.32-.54,8.7-8.61,13-20.7,18-30.43-19,5.89-23.8,6.18-23.8,6.18,11.41-2.55,19.13-7.54,25.84-10.39,11.43-24.66,7.52-36.27,7.52-36.27-8.08,1.18-25.87,6.13-32.75,7.81a237.38,237.38,0,0,0-14.11,25.14c1.72-7.27,6.29-17.06,9.85-24-9.94,2.66-8.3,2.34-16.08,6-7.73,10.72-16.14,31.62-16.14,31.62,1.49-8.82,6.85-21.52,10-28.48a119.54,119.54,0,0,0-32.67,26.37c-3.63,10.63-6.18,21.79-6.18,21.79a91,91,0,0,1,2.33-17.27c-9.92,12-18.58,25.89-28.31,41.21l-4.62,14.89,19.9,2.17c15.78.22,31.3-4.61,44.8-11.19Z" transform="translate(-220.18 -356.96)"/></g><g xmlns="http://www.w3.org/2000/svg" class="cls-1"><path class="cls-2" d="M271.12,604.89c9.18,11.89,20.93,23.12,35.16,29.93l18.79,6.91,2.48-15.39c-1.9-18.05-3.51-34.29-7-49.5a91,91,0,0,1-5.6,16.5s2.68-11.13,4.15-22.26a119.43,119.43,0,0,0-17.53-38.14c-.28,7.63-1.12,21.39-3.71,29.95,0,0,1.76-22.46-.4-35.5-5.31-6.78-4-5.76-11.71-12.56.08,7.84-.18,18.64-1.87,25.92a235.51,235.51,0,0,0-1.47-28.8C277,507.39,263.24,495,256.53,490.4c0,0-8.67,8.66-9.4,35.83,4.75,5.53,9.44,13.44,18.53,20.79,0,0-4.21-2.41-18.57-16.12.1,10.92-1.39,23.67,2.57,35.25,4.54,2.75,9.52,3.76,23.34,12.2,0,0-14-7.13-20.72-5.4a154.44,154.44,0,0,0,14.59,26.14l15.52,10Z" transform="translate(-220.18 -356.96)"/></g><g xmlns="http://www.w3.org/2000/svg" class="cls-1"><path class="cls-2" d="M284.8,662.41c13.51,6.58,29,11.41,44.8,11.19l19.9-2.17-4.62-14.89c-9.72-15.32-18.38-29.16-28.3-41.21a91.7,91.7,0,0,1,2.32,17.27s-2.54-11.16-6.18-21.79a119.64,119.64,0,0,0-32.66-26.37c3.15,7,8.51,19.66,10,28.48,0,0-8.4-20.9-16.14-31.62-7.77-3.71-6.14-3.39-16.07-6,3.55,7,8.12,16.78,9.84,24a235.39,235.39,0,0,0-14.11-25.14c-6.87-1.68-24.67-6.63-32.74-7.81,0,0-3.91,11.61,7.51,36.27,6.71,2.85,14.43,7.84,25.84,10.39,0,0-4.84-.29-23.8-6.18,5,9.73,9.28,21.82,18,30.43,5.28.44,10.19-.86,26.32.54,0,0-15.68-.16-21,4.38a154.15,154.15,0,0,0,24.7,16.93l18.36,2.1Z" transform="translate(-220.18 -356.96)"/></g><ellipse xmlns="http://www.w3.org/2000/svg" class="cls-3" cx="300.32" cy="319.01" rx="267.56" ry="39.33"/><ellipse xmlns="http://www.w3.org/2000/svg" class="cls-3" cx="139.27" cy="326.69" rx="64.48" ry="7.68"/><path xmlns="http://www.w3.org/2000/svg" class="cls-4" d="M729,389.3V647.59a32.69,32.69,0,0,1-32.68,32.69H453.07a32.7,32.7,0,0,1-32.69-32.69V389.3A32.69,32.69,0,0,1,453.07,357H696.34A32.68,32.68,0,0,1,729,389.3Z" transform="translate(-220.18 -356.96)"/><path xmlns="http://www.w3.org/2000/svg" class="cls-5" d="M453.07,680.28a32.7,32.7,0,0,1-32.69-32.69V389.3A32.69,32.69,0,0,1,453.07,357h42.26V680.28Z" transform="translate(-220.18 -356.96)"/><rect xmlns="http://www.w3.org/2000/svg" class="cls-2" x="290.91" y="38.3" width="32.48" height="32.48" rx="7.79"/><rect xmlns="http://www.w3.org/2000/svg" class="cls-3" x="331.32" y="50.48" width="116.79" height="6.57"/><rect xmlns="http://www.w3.org/2000/svg" class="cls-6" x="213.56" y="20.71" width="49.31" height="6.57"/><rect xmlns="http://www.w3.org/2000/svg" class="cls-3" x="290.91" y="101.53" width="157.2" height="2.61"/><rect xmlns="http://www.w3.org/2000/svg" class="cls-3" x="290.91" y="107.62" width="157.2" height="2.61"/><rect xmlns="http://www.w3.org/2000/svg" class="cls-3" x="290.91" y="113.71" width="157.2" height="2.61"/><rect xmlns="http://www.w3.org/2000/svg" class="cls-3" x="290.91" y="119.8" width="157.2" height="2.61"/><rect xmlns="http://www.w3.org/2000/svg" class="cls-3" x="290.91" y="125.6" width="157.2" height="2.61"/><rect xmlns="http://www.w3.org/2000/svg" class="cls-3" x="290.91" y="131.69" width="157.2" height="2.61"/><rect xmlns="http://www.w3.org/2000/svg" class="cls-3" x="290.91" y="137.78" width="157.2" height="2.61"/><rect xmlns="http://www.w3.org/2000/svg" class="cls-3" x="290.91" y="143.87" width="157.2" height="2.61"/><rect xmlns="http://www.w3.org/2000/svg" class="cls-6" x="290.91" y="275.91" width="157.2" height="28.64" rx="4.05"/><text xmlns="http://www.w3.org/2000/svg" class="cls-7" transform="translate(301.93 294.69)">Hello!</text><rect xmlns="http://www.w3.org/2000/svg" class="cls-6" x="213.56" y="50.48" width="40.22" height="3.29"/><rect xmlns="http://www.w3.org/2000/svg" class="cls-6" x="213.56" y="60.63" width="25.83" height="1.64"/><rect xmlns="http://www.w3.org/2000/svg" class="cls-6" x="213.56" y="67.59" width="25.83" height="1.64"/><rect xmlns="http://www.w3.org/2000/svg" class="cls-6" x="213.56" y="74.56" width="25.83" height="1.64"/><circle xmlns="http://www.w3.org/2000/svg" class="cls-6" cx="264.8" cy="52.22" r="2.32"/><rect xmlns="http://www.w3.org/2000/svg" class="cls-6" x="213.56" y="101.14" width="40.22" height="3.29"/><rect xmlns="http://www.w3.org/2000/svg" class="cls-6" x="213.56" y="111.29" width="25.83" height="1.64"/><rect xmlns="http://www.w3.org/2000/svg" class="cls-6" x="213.56" y="118.25" width="25.83" height="1.64"/><rect xmlns="http://www.w3.org/2000/svg" class="cls-6" x="213.56" y="125.22" width="25.83" height="1.64"/><circle xmlns="http://www.w3.org/2000/svg" class="cls-6" cx="264.8" cy="102.88" r="2.32"/><rect xmlns="http://www.w3.org/2000/svg" class="cls-6" x="213.56" y="155.09" width="40.22" height="3.29"/><rect xmlns="http://www.w3.org/2000/svg" class="cls-6" x="213.56" y="165.24" width="25.83" height="1.64"/><rect xmlns="http://www.w3.org/2000/svg" class="cls-6" x="213.56" y="172.2" width="25.83" height="1.64"/><rect xmlns="http://www.w3.org/2000/svg" class="cls-6" x="213.56" y="179.16" width="25.83" height="1.64"/><circle xmlns="http://www.w3.org/2000/svg" class="cls-6" cx="264.8" cy="156.83" r="2.32"/><rect xmlns="http://www.w3.org/2000/svg" class="cls-8" x="78.31" y="186.73" width="125.44" height="139.72" rx="24.71"/><path xmlns="http://www.w3.org/2000/svg" class="cls-2" d="M340,594.61c3.3,0,6.6,0,9.91,0,4.38,0,7.86,2.27,8.85,5.9,1.15,4.19-.43,7.79-4.39,10.09a7.36,7.36,0,0,1-3.86.88c-6.92,0-13.84,0-20.76,0a8.26,8.26,0,0,1-8.21-6.49,8.47,8.47,0,0,1,4.23-9.4,7.34,7.34,0,0,1,3.85-.87H340Z" transform="translate(-220.18 -356.96)"/><path xmlns="http://www.w3.org/2000/svg" class="cls-9" d="M359.26,633.85c0,4.37.1,7.76,0,11.13-.16,4.34-2.91,7.71-6.62,8.36a8.51,8.51,0,0,1-9.69-4.93,6.76,6.76,0,0,1-.57-3c0-7.14,0-14.29,0-21.44a8.12,8.12,0,0,1,7.41-8.26c4.73-.4,8.27,2.22,9.14,6.89C359.69,626.67,359.07,630.78,359.26,633.85Z" transform="translate(-220.18 -356.96)"/><path xmlns="http://www.w3.org/2000/svg" class="cls-10" d="M380.13,592.58c0,3.54.05,7.08,0,10.61a8.33,8.33,0,0,1-7.59,8.2,8.12,8.12,0,0,1-9-7.1,39.1,39.1,0,0,1-.21-5.63c0-5.43-.05-10.85,0-16.27s3.6-8.79,8.73-8.76c4.65,0,8.09,3.76,8.11,8.82,0,3.38,0,6.76,0,10.13Z" transform="translate(-220.18 -356.96)"/><path xmlns="http://www.w3.org/2000/svg" class="cls-11" d="M382.17,615.66c3.46,0,6.91,0,10.37,0a8.12,8.12,0,0,1,8.4,8.2c.05,5.11-3.09,8.46-8.24,8.54-6.91.09-13.82.05-20.73,0a8.4,8.4,0,1,1,.07-16.78c3.37.07,6.75,0,10.13,0Z" transform="translate(-220.18 -356.96)"/><path xmlns="http://www.w3.org/2000/svg" class="cls-11" d="M363.41,641.84c-.06-5.21-.06-5.22,5.14-5.2a37.22,37.22,0,0,1,4.23.13c4.55.56,7.56,4.36,7.33,9.12a8.26,8.26,0,0,1-8.14,7.59,8.11,8.11,0,0,1-8.54-7.64C363.32,644.51,363.41,643.17,363.41,641.84Z" transform="translate(-220.18 -356.96)"/><path xmlns="http://www.w3.org/2000/svg" class="cls-2" d="M353.49,590.4c-2.25-.07-4.77.24-7.07-1.21a8.41,8.41,0,0,1,5.49-15.55,8.21,8.21,0,0,1,7.09,7.12c.25,2.73.09,5.49.14,8.23,0,1-.44,1.43-1.42,1.42C356.39,590.39,355.06,590.4,353.49,590.4Z" transform="translate(-220.18 -356.96)"/><path xmlns="http://www.w3.org/2000/svg" class="cls-9" d="M332.4,615.69c5.72,0,5.69,0,5.73,5.72,0,3.25.08,6.4-2.67,8.91-3.21,2.93-7.93,3-11.56-.12a8.11,8.11,0,0,1-1.07-10.87C325.24,616.15,326.44,615.69,332.4,615.69Z" transform="translate(-220.18 -356.96)"/><path xmlns="http://www.w3.org/2000/svg" class="cls-10" d="M389.87,611.41c-5.48,0-5.45,0-5.51-5.41,0-3.1-.1-6.14,2.21-8.66A8.41,8.41,0,0,1,401,604.5c-.87,4-3.85,6.72-7.63,6.9C392.23,611.46,391.05,611.41,389.87,611.41Z" transform="translate(-220.18 -356.96)"/><path xmlns="http://www.w3.org/2000/svg" class="cls-12" d="M392.25,421.26c6.9,1.73,19.62,7.92,22.28,18.49,4,15.88-4,39.19,8.67,62,4,7.27-70,17-70,17L339,438.55S356.8,421.14,360.44,420C368,417.53,378.46,417.79,392.25,421.26Z" transform="translate(-220.18 -356.96)"/><path xmlns="http://www.w3.org/2000/svg" class="cls-12" d="M338.84,438.6c-2.57,6.41-9.06,44.55-1.82,53.54.83,1-3.76,2.66-2.93,7.4.14.79,1.52,4.58,1.52,4.58l5.92,1.53,17.87-10.16L356,491.32l-1.61,0a3.65,3.65,0,0,1-1.11-3.18c.43-1.75-4.1-4.59-10.93-34.19C340.31,445.28,339.41,437.18,338.84,438.6Z" transform="translate(-220.18 -356.96)"/><path xmlns="http://www.w3.org/2000/svg" class="cls-3" d="M345.76,490.33l5.28-1.16,2.14-.34a3.91,3.91,0,0,0,1.18,2.53l-4.1.13-4.8,1-5.8,3.3Z" transform="translate(-220.18 -356.96)"/><path xmlns="http://www.w3.org/2000/svg" class="cls-3" d="M353.32,495.26a15.83,15.83,0,0,0-7.57,2.09c-2.65,1.63-5.09,5.18-2.66,7.1a39.79,39.79,0,0,0,6.19,3.71S358.59,508.41,353.32,495.26Z" transform="translate(-220.18 -356.96)"/><path xmlns="http://www.w3.org/2000/svg" class="cls-13" d="M343.11,504.59l2.49-.54s8.57-.78,9.79-.11,5.15,3.33,5.15,3.33l.81.74s-1.91,1.19-4.49-.61-2.8-.42-2.8-.42l.43,2.29,0,2.91.4,1.23s.36.67.08.91a1.62,1.62,0,0,1-1.63.37l-2.61-4.55-.71,5a1.83,1.83,0,0,1-1.17.85c-.77.16-.77,0-.77,0l-.59-1.26a1.51,1.51,0,0,1-.52.86,2.49,2.49,0,0,1-1.55.44l.24-5.21-1.07,2.65a2,2,0,0,1-1.17.84c-.86.2-1.1.27-1.1.27Z" transform="translate(-220.18 -356.96)"/><path xmlns="http://www.w3.org/2000/svg" class="cls-14" d="M387.5,484.19s-6.22,15.76-21.17,20c-2.59.73-4.18,3.52-2.93,4.42,1.6,1.15,3.79,1.4,7.54,1.39,7.82,0,18.46-2.45,25.82-9.57,10.89-10.53,14.32-15.32,13.22-20.62S387.5,484.19,387.5,484.19Z" transform="translate(-220.18 -356.96)"/><path xmlns="http://www.w3.org/2000/svg" class="cls-12" d="M412.41,434.45c3.17,5.2,5,13.55,5,25.5,0,9.25-8,24.4-9.23,29.06-.2.78-.69,4.11-.69,4.11l-8.85,8.68-17.75-12,5.4-8.28,1.61.16s1-4.56.74-6.34,4.92-25.64,7.49-40.94C397.58,425.57,409.27,429.29,412.41,434.45Z" transform="translate(-220.18 -356.96)"/><path xmlns="http://www.w3.org/2000/svg" class="cls-12" d="M396.52,481.36l-5.17-1.6-2.1-.52a3.91,3.91,0,0,1-1.38,2.42l4.07.47,4.69,1.44,5.51,3.78Z" transform="translate(-220.18 -356.96)"/><path xmlns="http://www.w3.org/2000/svg" class="cls-14" d="M367.47,504.11l-9-2.48s-2.56,3.44-2.07,4.29,0,5.94,0,5.94l4.39,3.72,3.56-1.18s.25-1.55-1-1.71.82-1,1.47-1.4S370.66,508.22,367.47,504.11Z" transform="translate(-220.18 -356.96)"/><path xmlns="http://www.w3.org/2000/svg" class="cls-14" d="M382.16,422.89a3,3,0,0,1-1.83,3.8l-9.93,3.48a3,3,0,0,1-3.8-1.83l-6.25-17.82a3,3,0,0,1,1.83-3.8l9.93-3.48a3,3,0,0,1,3.8,1.83Z" transform="translate(-220.18 -356.96)"/><path xmlns="http://www.w3.org/2000/svg" class="cls-14" d="M358.94,431.94a3.56,3.56,0,0,0,4.38,2.49l15.48-4.26a3.56,3.56,0,0,0,2.49-4.39L375,402.86a3.57,3.57,0,0,0-4.39-2.48l-15.48,4.26a3.56,3.56,0,0,0-2.49,4.38Z" transform="translate(-220.18 -356.96)"/><path xmlns="http://www.w3.org/2000/svg" class="cls-15" d="M353.9,413.75s-2.69-1.64-3.45-2.9a5.33,5.33,0,0,1,1-4.9c1.45-1.48,3.39,0,3.39,0s-2.32,2.29-2.31,2.9S353.9,413.75,353.9,413.75Z" transform="translate(-220.18 -356.96)"/><path xmlns="http://www.w3.org/2000/svg" class="cls-15" d="M379.4,412.74s-.09-9.46-1.23-11.91-1.92-4.17-5.16-3.59c-4.83.87-4.62,1.89-7.3,1.09s-7.76-3.12-9.28-3.07c-2.52.07-6,1.89-4.93,6.37a5.09,5.09,0,0,1-.95,4.78c.29.35,1.26.49,3,.82,4.88,1,7.59.69,10.64-1.08s8.69-5.32,10.07-3.08,3.16,9.77,3.6,10.26S378.94,413.33,379.4,412.74Z" transform="translate(-220.18 -356.96)"/><path xmlns="http://www.w3.org/2000/svg" class="cls-14" d="M376.42,421a1.18,1.18,0,0,0,1.46.83l3.34-.92a1.18,1.18,0,0,0,.83-1.46l-1.68-6.11a1.19,1.19,0,0,0-1.46-.83l-3.35.92a1.19,1.19,0,0,0-.83,1.46Z" transform="translate(-220.18 -356.96)"/><path xmlns="http://www.w3.org/2000/svg" class="cls-14" d="M356.47,426.45a1.2,1.2,0,0,0,1.47.84l3.34-.92a1.19,1.19,0,0,0,.83-1.47l-1.69-6.11A1.19,1.19,0,0,0,359,418l-3.34.92a1.18,1.18,0,0,0-.83,1.46Z" transform="translate(-220.18 -356.96)"/><path xmlns="http://www.w3.org/2000/svg" class="cls-15" d="M378.47,415.16l3.31,12c.75,2.72,1.31,9-14.06,13.22-9.1,2.51-10.61-4.27-11.21-6.46-.46-1.68.05-7.2.75-8.43,0,0,1,3.73,1,3.73a7.55,7.55,0,0,1,5.22-5.35c7-1.92,9.69,1.72,12.75.81C378.59,424,379.31,419.65,378.47,415.16Z" transform="translate(-220.18 -356.96)"/><path xmlns="http://www.w3.org/2000/svg" class="cls-14" d="M368,429l-4.77,1.32a1.19,1.19,0,0,1-1.46-.83l-.19-.67,7.07-2,.18.67A1.18,1.18,0,0,1,368,429Z" transform="translate(-220.18 -356.96)"/><path xmlns="http://www.w3.org/2000/svg" class="cls-15" d="M292.5,520.57c2.2,6.08,40.81,28.49,53.76,27.17l39,1.85c33.17-4,48.86-55.55,48.86-55.55-1.33-12.93-34,5.81-45.64,11.62-18.45,9.2-30.11,9.67-30.11,9.67-12.34,1.26-26.64-8.25-42.22-8.58C299.05,506.38,289,511,292.5,520.57Z" transform="translate(-220.18 -356.96)"/><path xmlns="http://www.w3.org/2000/svg" class="cls-3" d="M377.34,514.38s0,0,0,0V512.7l-67.14-1.22,0,1.62a.11.11,0,0,0,0,.06l.17.3c.84,1.42,2.38,1.7,4.15,1.74L373,516.26c1.78,0,3.33-.19,4.21-1.58Z" transform="translate(-220.18 -356.96)"/><path xmlns="http://www.w3.org/2000/svg" class="cls-4" d="M361.16,514.35s0,0,0,0l.16.25a2.69,2.69,0,0,0,1,.84l10.21.19c1.7,0,3.19-.14,4.05-1.27l.16-.24,0,0v-.79l-15.55-.28Z" transform="translate(-220.18 -356.96)"/><rect xmlns="http://www.w3.org/2000/svg" class="cls-3" x="334.78" y="496.11" width="1.14" height="33.55" transform="matrix(0.02, -1, 1, 0.02, -403.72, 481.93)"/><path xmlns="http://www.w3.org/2000/svg" class="cls-4" d="M360.82,512.35l-8.1-33.14a2.2,2.2,0,0,0-2-1.61l-47.1-.85a1.17,1.17,0,0,0-1.19,1.55l8.11,33.13Z" transform="translate(-220.18 -356.96)"/><path xmlns="http://www.w3.org/2000/svg" class="cls-3" d="M334.5,494.59a2.26,2.26,0,0,1-2.29,3,4.23,4.23,0,0,1-3.8-3.11,2.27,2.27,0,0,1,2.3-3A4.22,4.22,0,0,1,334.5,494.59Z" transform="translate(-220.18 -356.96)"/><path xmlns="http://www.w3.org/2000/svg" class="cls-14" d="M391.22,558.17c-4.65.8-8.19-4.59-8.19-4.59l-12-9.44,2.53-6.39,23.38,10.5S395.86,557.38,391.22,558.17Z" transform="translate(-220.18 -356.96)"/><path xmlns="http://www.w3.org/2000/svg" class="cls-15" d="M383,553.21a12.22,12.22,0,0,0,.89,3c.89,2.46,2,3.31,3.15,3.65,4.48,1.32,7.71.66,18.48,2.74s14,.51,17.17-4.46-.12-8.86-5.38-9.26c-7.61-.58-11.84.29-15.8-.31-4.15-.63-4.42-1.56-6.85-3.05-2.27-1.4-4.37,6.93-2.21,8.86C394.35,556.11,384.63,556.37,383,553.21Z" transform="translate(-220.18 -356.96)"/><path xmlns="http://www.w3.org/2000/svg" class="cls-16" d="M385.32,558c4.48,1.31,7.71.65,18.49,2.72s14,.51,17.16-4.45c1.46-2.3,1.53-4.35.68-5.94,2.37,1.63,3.18,4.48,1.05,7.83-3.16,5-6.39,6.53-17.17,4.46s-14-1.42-18.48-2.74a4.13,4.13,0,0,1-2.51-2.21A4.34,4.34,0,0,0,385.32,558Z" transform="translate(-220.18 -356.96)"/><path xmlns="http://www.w3.org/2000/svg" class="cls-6" d="M383,553.36a.86.86,0,0,1,0-.15,1.63,1.63,0,0,0,.11.17Z" transform="translate(-220.18 -356.96)"/><path xmlns="http://www.w3.org/2000/svg" class="cls-6" d="M406.31,557.09c.35.13.65-.52.76-1.44a26,26,0,0,1,1.25-5.55c.31-.91.3-1.71-.08-1.81s-1,.55-1.28,1.43a26.16,26.16,0,0,0-1.18,5.49C405.69,556.12,406,557,406.31,557.09Z" transform="translate(-220.18 -356.96)"/><path xmlns="http://www.w3.org/2000/svg" class="cls-6" d="M403,556.49c.36.07.7-.57.8-1.42a23.61,23.61,0,0,1,1.23-5.23c.3-.85.28-1.59-.12-1.64s-1,.59-1.31,1.44a22.91,22.91,0,0,0-1.16,5.17C402.32,555.66,402.61,556.4,403,556.49Z" transform="translate(-220.18 -356.96)"/><path xmlns="http://www.w3.org/2000/svg" class="cls-6" d="M399.47,556.33c.38,0,.75-.62.89-1.51a26.34,26.34,0,0,1,1.46-5.39c.34-.89.34-1.63-.08-1.65s-1.08.67-1.41,1.55a25.08,25.08,0,0,0-1.38,5.33C398.82,555.53,399.09,556.29,399.47,556.33Z" transform="translate(-220.18 -356.96)"/><path xmlns="http://www.w3.org/2000/svg" class="cls-15" d="M390.4,542.75s-82.49-33.89-87.21-33.94c-15.93-.15-12.28,16-4.2,23.55,9.52,8.94,81.95,25.31,81.95,25.31Z" transform="translate(-220.18 -356.96)"/><polygon xmlns="http://www.w3.org/2000/svg" class="cls-14" points="137.49 191.69 160.01 170.35 150.42 160.85 125.83 186.68 137.49 191.69"/><path xmlns="http://www.w3.org/2000/svg" class="cls-15" d="M353,531.87s57.31-52.51,61.17-54.08c13.09-5.3,21.19,9.14,20.73,14.12-.59,6.47-58.82,59.06-58.82,59.06Z" transform="translate(-220.18 -356.96)"/><path xmlns="http://www.w3.org/2000/svg" class="cls-15" d="M319.05,550.31c-1.34,1.24-1.57,4.88-1.57,4.88s19.13,7.23,25.84,7.36a34.15,34.15,0,0,0,7.89-1.5c.52-.14,1.68-1.44,2.17-1.6.92-.26,1.13.63,1.91.38a21.54,21.54,0,0,0,3.54-1.31c4.05-8.58,2.68-12.81,2.68-12.81s-8.79,2.52-7.28.55c3.22-4.2-6-8.51-8.05-6.27C338,549,322.93,546.73,319.05,550.31Z" transform="translate(-220.18 -356.96)"/><path xmlns="http://www.w3.org/2000/svg" class="cls-16" d="M318,552.1c5.87,2.33,18.23,7.15,20.69,7.32,10.06.72,17.1-2.85,21.8-5a38.22,38.22,0,0,1-1.65,4.06,21.54,21.54,0,0,1-3.54,1.31c-.78.25-1-.64-1.91-.38-.49.16-1.65,1.46-2.17,1.6a34.15,34.15,0,0,1-7.89,1.5c-6.71-.13-25.84-7.36-25.84-7.36A13,13,0,0,1,318,552.1Z" transform="translate(-220.18 -356.96)"/><path xmlns="http://www.w3.org/2000/svg" class="cls-6" d="M331.5,546.53c-.17.33.57.72,1.65,1a37.11,37.11,0,0,1,6.46,1.95c1,.43,2,.53,2.14.17s-.58-1.06-1.61-1.48a36.37,36.37,0,0,0-6.39-1.88C332.69,546,331.68,546.2,331.5,546.53Z" transform="translate(-220.18 -356.96)"/><path xmlns="http://www.w3.org/2000/svg" class="cls-6" d="M335.79,545c-.16.33.57.81,1.62,1.12a36.86,36.86,0,0,1,6.24,2.45c1,.51,1.92.66,2.06.28s-.56-1.15-1.56-1.64a36.71,36.71,0,0,0-6.18-2.37C336.93,544.57,336,544.68,335.79,545Z" transform="translate(-220.18 -356.96)"/><path xmlns="http://www.w3.org/2000/svg" class="cls-6" d="M339.93,543.68c-.16.36.55.91,1.57,1.29a38.38,38.38,0,0,1,6,2.93c1,.58,1.84.79,2,.39s-.54-1.24-1.49-1.8a35.79,35.79,0,0,0-6-2.84C341,543.28,340.07,543.33,339.93,543.68Z" transform="translate(-220.18 -356.96)"/></svg>