<svg id="visual" viewBox="0 0 450 900" width="450" height="900" xmlns="http://www.w3.org/2000/svg" xmlns:xlink="http://www.w3.org/1999/xlink" version="1.1"><path d="M164 0L178.7 25C193.3 50 222.7 100 231.7 150C240.7 200 229.3 250 212.3 300C195.3 350 172.7 400 155.7 450C138.7 500 127.3 550 141.3 600C155.3 650 194.7 700 211.3 750C228 800 222 850 219 875L216 900L0 900L0 875C0 850 0 800 0 750C0 700 0 650 0 600C0 550 0 500 0 450C0 400 0 350 0 300C0 250 0 200 0 150C0 100 0 50 0 25L0 0Z" fill="#f5f5f5" stroke-linecap="round" stroke-linejoin="miter"></path></svg>